# xmcd
#
# Track frame offsets: 
#        150
#        5157
#        20605
#        34097
#        53037
#        75385
#        91282
#        105632
#        124665
#        138072
#        158192
#        170697
#
# Disc length: 2583 seconds
#
# Revision: 12
# Processed by: cddbd v1.5.2PL0 Copyright (c) Steve Scherf et al.
# Submitted via: ExactAudioCopyFreeDBPlugin 1.0
#
DISCID=8e0a150c
DTITLE=R.L. Burnside - Come On In
DYEAR=1998
DGENRE=Blues
TTITLE0=Been Mistreated
TTITLE1=Come On In (Live)
TTITLE2=Let My Baby Ride
TTITLE3=Don't Stop Honey (feat Mr. Cedric Burnside)
TTITLE4=It's Bad You Know
TTITLE5=Just Like A Woman
TTITLE6=Come On In (Part 2)
TTITLE7=Rollin' Tumblin' (Remix)
TTITLE8=Please Don't Stay
TTITLE9=Shuck Dub
TTITLE10=Come On In (Part 3)
TTITLE11=Heat
EXTD=
EXTT0=
EXTT1=
EXTT2=
EXTT3=
EXTT4=
EXTT5=
EXTT6=
EXTT7=
EXTT8=
EXTT9=
EXTT10=
EXTT11=
PLAYORDER=
